<?xml version="1.0" encoding="iso-8859-1"?>
<!-- Generator: Adobe Illustrator 23.0.3, SVG Export Plug-In . SVG Version: 6.00 Build 0)  -->
<svg version="1.1" id="Layer_1" xmlns="http://www.w3.org/2000/svg" xmlns:xlink="http://www.w3.org/1999/xlink" x="0px" y="0px"
	 viewBox="0 0 496 512" style="enable-background:new 0 0 496 512;" xml:space="preserve">
<g>
	<path d="M248,120c-48.6,0-88,39.4-88,88c0,48.6,39.4,88,88,88c48.6,0,88-39.4,88-88C336,159.4,296.6,120,248,120z M248,264
		c-30.9,0-56-25.1-56-56c0-30.9,25.1-56,56-56c30.9,0,56,25.1,56,56C304,238.9,278.9,264,248,264z"/>
	<path d="M248,8C111,8,0,119,0,256s111,248,248,248s248-111,248-248S385,8,248,8z M376,429.6c-35.9,26.5-80.1,42.4-128,42.4
		c-47.9,0-92.1-15.9-128-42.4V416c0-35.3,28.7-64,64-64c11.1,0,27.5,11.4,64,11.4c36.6,0,52.8-11.4,64-11.4c35.3,0,64,28.7,64,64
		V429.6z M406.6,402.1c-6.8-46.4-46.3-82.1-94.6-82.1c-20.5,0-30.4,11.4-64,11.4c-33.6,0-43.4-11.4-64-11.4
		c-48.3,0-87.8,35.7-94.6,82.1C53.9,363.6,32,312.4,32,256c0-119.1,96.9-216,216-216s216,96.9,216,216
		C464,312.4,442.1,363.6,406.6,402.1z"/>
</g>
</svg>
